# Made in Blockbench 2.3.2
mtllib model.mtl
o cube
v 0.02247904837429665 -7.139978181916346 -0.0025008284114032275
v 0.022444141806978693 -7.139943275402194 -0.022500767487980716
v 0.022513954888448887 -7.159978120886592 -0.0025357958488847754
v 0.02247904832113093 -7.15994321437244 -0.022535734925462264
v 0.00244420273040033 -7.139978242839676 -0.022465921950416218
v 0.0024791092977182877 -7.140013149353828 -0.002465982873838757
v 0.002479109244552566 -7.1599781818099215 -0.022500889387897766
v 0.0025140158118705236 -7.160013088324074 -0.002500950311320277
vt 0 1
vt 0 0.9375
vt 0.0625 1
vt 0 0.9375
vt 0.0625 0.9375
vt 0.0625 1
vt 0 1
vt 0 0.9375
vt 0.0625 1
vt 0 0.9375
vt 0.0625 0.9375
vt 0.0625 1
vt 0 1
vt 0 0
vt 1 1
vt 0 0
vt 1 0
vt 1 1
vt 0 1
vt 0 0.9375
vt 0.0625 1
vt 0 0.9375
vt 0.0625 0.9375
vt 0.0625 1
vt 0 1
vt 0 0.9375
vt 0.0625 1
vt 0 0.9375
vt 0.0625 0.9375
vt 0.0625 1
vt 0 1
vt 0 0.9375
vt 0.0625 1
vt 0 0.9375
vt 0.0625 0.9375
vt 0.0625 1
vn 0.9999969538288952 0.001748371874077093 -0.001742276878224663
vn 0.9999969538288952 0.001748371874077093 -0.001742276878224663
vn 0.9999969538288952 0.001748371874077093 -0.001742276878224663
vn 0.9999969538288952 0.001748371874077093 -0.001742276878224663
vn 0.9999969538288952 0.001748371874077093 -0.001742276878224663
vn 0.9999969538288952 0.001748371874077093 -0.001742276878224663
vn -0.9999969538288952 -0.001748371874077093 0.001742276878224663
vn -0.9999969538288952 -0.001748371874077093 0.001742276878224663
vn -0.9999969538288952 -0.001748371874077093 0.001742276878224663
vn -0.9999969538288952 -0.001748371874077093 0.001742276878224663
vn -0.9999969538288952 -0.001748371874077093 0.001742276878224663
vn -0.9999969538288952 -0.001748371874077093 0.001742276878224663
vn -0.0017453257076118665 0.9999969485123263 0.0017483718740770927
vn -0.0017453257076118665 0.9999969485123263 0.0017483718740770927
vn -0.0017453257076118665 0.9999969485123263 0.0017483718740770927
vn -0.0017453257076118665 0.9999969485123263 0.0017483718740770927
vn -0.0017453257076118665 0.9999969485123263 0.0017483718740770927
vn -0.0017453257076118665 0.9999969485123263 0.0017483718740770927
vn 0.0017453257076118665 -0.9999969485123263 -0.0017483718740770927
vn 0.0017453257076118665 -0.9999969485123263 -0.0017483718740770927
vn 0.0017453257076118665 -0.9999969485123263 -0.0017483718740770927
vn 0.0017453257076118665 -0.9999969485123263 -0.0017483718740770927
vn 0.0017453257076118665 -0.9999969485123263 -0.0017483718740770927
vn 0.0017453257076118665 -0.9999969485123263 -0.0017483718740770927
vn 0.0017453283658983088 -0.0017453257076118663 0.9999969538288952
vn 0.0017453283658983088 -0.0017453257076118663 0.9999969538288952
vn 0.0017453283658983088 -0.0017453257076118663 0.9999969538288952
vn 0.0017453283658983088 -0.0017453257076118663 0.9999969538288952
vn 0.0017453283658983088 -0.0017453257076118663 0.9999969538288952
vn 0.0017453283658983088 -0.0017453257076118663 0.9999969538288952
vn -0.0017453283658983088 0.0017453257076118663 -0.9999969538288952
vn -0.0017453283658983088 0.0017453257076118663 -0.9999969538288952
vn -0.0017453283658983088 0.0017453257076118663 -0.9999969538288952
vn -0.0017453283658983088 0.0017453257076118663 -0.9999969538288952
vn -0.0017453283658983088 0.0017453257076118663 -0.9999969538288952
vn -0.0017453283658983088 0.0017453257076118663 -0.9999969538288952
usemtl 0
f 1/1/1 3/2/2 2/3/3
f 3/4/4 4/5/5 2/6/6
usemtl 0
f 5/7/7 7/8/8 6/9/9
f 7/10/10 8/11/11 6/12/12
usemtl 0
f 5/13/13 6/14/14 2/15/15
f 6/16/16 1/17/17 2/18/18
usemtl 0
f 8/19/19 7/20/20 3/21/21
f 7/22/22 4/23/23 3/24/24
usemtl 0
f 6/25/25 8/26/26 1/27/27
f 8/28/28 3/29/29 1/30/30
usemtl 0
f 2/31/31 4/32/32 5/33/33
f 4/34/34 7/35/35 5/36/36
